<?xml version="1.0" encoding="UTF-8"?>
<svg id="Layer_2" data-name="Layer 2" xmlns="http://www.w3.org/2000/svg" viewBox="0 0 1072.09 68.47">
  <defs>
    <style>
      .cls-1 {
        fill: #000;
      }
    </style>
  </defs>
  <g id="Layer_1-2" data-name="Layer 1">
    <g>
      <path class="cls-1" d="m0,.76h112.61v13.77H27.92v12.36h76.86v13.58H27.92v13.49h87.15v13.77H0V.76Z"/>
      <path class="cls-1" d="m121.11.76h28.11l80.45,46.02V.76h27.16v66.96h-28.2l-80.36-45.08v45.08h-27.16V.76Z"/>
      <path class="cls-1" d="m262.5,47.44v-.47h30.65v.47c0,5.28,6.04,8.58,25.37,8.58h24.05c19.9,0,24.71-2.36,24.71-6.7v-.47c0-3.96-4.06-5.76-18.2-6.41l-44.61-2.17c-28.29-1.41-39.05-6.88-39.05-19.33v-.94c0-12.73,13.02-20,51.31-20h23.96c36.88,0,53.38,5.85,53.38,19.81v.47h-30.56v-.47c0-4.62-5.28-7.36-22.82-7.36h-24.05c-17.17,0-22.07,2.36-22.07,6.13v.47c0,3.77,3.77,5.94,17.83,6.6l44.7,2.17c29.52,1.41,39.33,7.07,39.33,19.33v.94c0,13.11-10.47,20.37-53.95,20.37h-23.95c-46.22,0-56.03-8.58-56.03-21.03Z"/>
      <path class="cls-1" d="m402.67.76h112.61v13.77h-84.69v12.36h76.86v13.58h-76.86v13.49h87.15v13.77h-115.07V.76Z"/>
      <path class="cls-1" d="m523.79.76h40.09l48.57,51.97L660.64.76h39.33v66.96h-27.16V17.17l-46.68,50.56h-28.11l-47.07-50.56v50.56h-27.16V.76Z"/>
      <path class="cls-1" d="m710.55.76h95.64c19.71,0,30.47,5.09,30.47,16.31v.94c0,7.45-3.96,12.83-16.69,14.9,15.09,1.6,20.37,7.07,20.37,15.28v.94c0,12.92-10.09,18.58-34.61,18.58h-95.16V.76Zm83.76,26.78c9.05,0,13.11-1.98,13.11-6.79v-.94c0-5.09-4.06-6.98-13.11-6.98h-55.84v14.71h55.84Zm3.39,28.11c8.58,0,13.39-1.98,13.39-7.73v-.94c0-5.28-4.81-7.45-13.39-7.45h-59.23v16.13h59.23Z"/>
      <path class="cls-1" d="m846.76.76h27.92v51.69h77.9v15.28h-105.82V.76Z"/>
      <path class="cls-1" d="m957.02.76h112.61v13.77h-84.69v12.36h76.86v13.58h-76.86v13.49h87.15v13.77h-115.07V.76Z"/>
    </g>
  </g>
</svg>