<svg class="w-24" viewBox="0 0 628 154" fill="none" xmlns="http://www.w3.org/2000/svg"><path d="M13.37 62.5303H0V75.9003H13.37V62.5303Z" fill="#E93323"></path><path d="M90.7299 0.5H77.3599V13.87H90.7299V0.5Z" fill="black"></path><path d="M90.7299 16.0098H77.3599V29.3798H90.7299V16.0098Z" fill="black"></path><path d="M106.24 0.5H92.8699V13.87H106.24V0.5Z" fill="black"></path><path d="M106.24 16.0098H92.8699V29.3798H106.24V16.0098Z" fill="black"></path><path d="M75.2699 16.0098H61.8999V29.3798H75.2699V16.0098Z" fill="black"></path><path d="M153.33 29.38L124.45 0.5H108.38V29.38H124.45V58.25H153.33V87.13V124.56H139.29V153.43H153.33H182.2V124.56V87.13V58.25L153.33 29.38Z" fill="black"></path><path d="M90.7299 31.5098H77.3599V44.8798H90.7299V31.5098Z" fill="black"></path><path d="M90.7299 47.0195H77.3599V60.3895H90.7299V47.0195Z" fill="black"></path><path d="M75.2699 31.5098H61.8999V44.8798H75.2699V31.5098Z" fill="black"></path><path d="M75.2699 47.0195H61.8999V60.3895H75.2699V47.0195Z" fill="black"></path><path d="M90.7299 62.5303H77.3599V75.9003H90.7299V62.5303Z" fill="black"></path><path d="M75.2699 78.04H61.8999V91.41H75.2699V78.04Z" fill="black"></path><path d="M90.7299 93.54H77.3599V106.91H90.7299V93.54Z" fill="black"></path><path d="M90.7299 109.05H77.3599V122.42H90.7299V109.05Z" fill="black"></path><path d="M75.2699 93.54H61.8999V106.91H75.2699V93.54Z" fill="black"></path><path d="M75.2699 109.05H61.8999V122.42H75.2699V109.05Z" fill="black"></path><path d="M121.73 124.56H108.36V137.93H121.73V124.56Z" fill="black"></path><path d="M121.73 140.06H108.36V153.43H121.73V140.06Z" fill="black"></path><path d="M106.26 124.56H92.8899V137.93H106.26V124.56Z" fill="black"></path><path d="M106.26 140.06H92.8899V153.43H106.26V140.06Z" fill="black"></path><path d="M137.19 124.56H123.82V137.93H137.19V124.56Z" fill="black"></path><path d="M137.19 140.06H123.82V153.43H137.19V140.06Z" fill="black"></path><path d="M90.7299 124.56H77.3599V137.93H90.7299V124.56Z" fill="black"></path><path d="M75.2699 140.06H61.8999V153.43H75.2699V140.06Z" fill="black"></path><path d="M59.7599 0.5H46.3899V13.87H59.7599V0.5Z" fill="black"></path><path d="M44.2999 16.0098H30.9299V29.3798H44.2999V16.0098Z" fill="black"></path><path d="M59.7599 31.5098H46.3899V44.8798H59.7599V31.5098Z" fill="black"></path><path d="M59.7599 62.5303H46.3899V75.9003H59.7599V62.5303Z" fill="black"></path><path d="M44.2999 78.04H30.9299V91.41H44.2999V78.04Z" fill="black"></path><path d="M59.7599 109.05H46.3899V122.42H59.7599V109.05Z" fill="black"></path><path d="M44.2999 109.05H30.9299V122.42H44.2999V109.05Z" fill="black"></path><path d="M59.7599 124.56H46.3899V137.93H59.7599V124.56Z" fill="black"></path><path d="M292.8 93.1501C292.8 98.7201 291.78 103.82 289.65 108.27C287.61 112.72 284.55 116.25 280.19 118.84C276.02 121.34 270.45 122.55 263.68 122.55C255.61 122.55 248.65 120.51 242.9 116.61C237.33 112.71 233.81 106.96 232.51 99.3601H211.08C211.36 106.5 212.94 112.81 215.81 118.19C218.78 123.57 222.77 128.02 227.59 131.73C232.41 135.25 237.98 137.94 244.1 139.8C250.41 141.66 256.99 142.58 263.76 142.58C272.11 142.58 279.53 141.37 285.93 138.87C292.42 136.37 297.71 132.93 302.07 128.48C306.52 124.03 309.86 118.93 312.09 113.17C314.32 107.33 315.43 101.02 315.43 94.3401V13.3701H292.8V93.1501Z" fill="black"></path><path d="M458.93 24.0399C454.66 20.5199 449.56 17.8299 443.62 16.1599C437.87 14.2999 431.65 13.3799 424.98 13.3799H331.76V140.55H354.39V97.9699H424.98C431.66 97.9699 437.87 97.2299 443.62 95.6499C449.46 94.1699 454.57 91.6599 458.93 88.2299C463.38 84.7999 466.81 80.4399 469.32 75.2399C471.82 69.8599 473.03 63.6499 473.03 56.4099C473.03 49.1699 471.82 42.7699 469.32 37.3899C466.82 32.0099 463.38 27.5599 458.93 24.0299V24.0399ZM443.81 73.1999C439.54 77.2799 433.79 79.3199 426.56 79.3199H354.39V33.1299H426.56C433.7 33.1299 439.45 35.1699 443.81 39.2499C448.17 43.3299 450.3 48.9899 450.3 56.3199C450.3 63.6499 448.17 69.0299 443.81 73.1999Z" fill="black"></path><path d="M557.91 78.9501V95.0901H601.53C599.78 100.19 597.04 104.77 593.25 108.73C588.98 113.18 583.7 116.61 577.3 119.12C570.9 121.62 563.48 122.83 554.95 122.83C544 122.83 534.82 121.07 527.49 117.36C520.16 113.74 514.69 108.55 510.98 101.87C507.46 95.1001 505.69 87.1201 505.69 77.9401C505.69 68.7601 507.73 60.4101 511.81 53.3601C516.08 46.3101 521.92 40.7401 529.53 36.8501C537.23 32.8601 546.41 30.9101 556.99 30.9101C565.15 30.9101 572.11 32.0201 578.05 34.2501C584.08 36.4801 589 39.6301 592.8 43.7101C596.6 47.7901 599.39 52.6101 601.06 58.2701H622.3C621.47 48.5301 618.31 40.2701 612.65 33.3201C607.18 26.2701 599.76 20.7001 590.3 16.8101C580.84 12.8201 569.8 10.8701 557.09 10.8701C545.96 10.8701 535.85 12.4501 526.67 15.6001C517.67 18.5701 509.88 23.0201 503.29 28.9601C496.8 34.8001 491.7 41.7601 487.98 50.0201C484.46 58.2801 482.69 67.5501 482.69 77.9401C482.69 88.3301 484.36 97.5101 487.61 105.67C491.04 113.65 495.87 120.42 502.17 126.08C508.66 131.65 516.18 135.82 524.99 138.7C533.8 141.58 543.63 143.06 554.67 143.06C571 143.06 584.26 138.51 594.19 129.24C601.93 122.34 607.26 113.15 610.2 101.74C609.89 104.44 609.57 107.28 609.22 110.22C608.57 115.79 608.01 121.17 607.64 126.55C607.27 131.74 607.08 136.48 607.08 140.65H627.3V78.9701H557.92L557.91 78.9501Z" fill="black"></path></svg>