<?xml version="1.0" standalone="no"?>
<!DOCTYPE svg PUBLIC "-//W3C//DTD SVG 1.1//EN" "http://www.w3.org/Graphics/SVG/1.1/DTD/svg11.dtd">
<svg xmlns="http://www.w3.org/2000/svg" width="226" height="32" viewBox="0 0 226 32" fill="none">
<path d="M46.043 4.75977V23.7092H59.1514V28.5314H40.8474V4.75977H46.043Z" fill="#011015"/>
<path d="M59.8636 20.2113C59.8636 14.0984 63.2596 11.1443 69.1686 11.1443C75.1455 11.1443 78.7457 14.2687 78.7457 20.2456V21.5698L64.6865 21.6038C64.6865 23.8451 67.0296 24.9319 69.3728 24.9319C71.7159 24.9319 73.2441 24.1508 73.55 22.9963H78.4741C77.625 27.377 74.3989 29.2106 69.3049 29.2106C63.5319 29.2106 59.8641 26.0525 59.8641 20.2116M73.6857 18.5137C73.6857 16.476 71.1048 15.4232 69.203 15.4232C67.0976 15.4232 64.6865 16.3743 64.6865 18.4115L73.6857 18.5137Z" fill="#011015"/>
<path d="M92.4294 28.5312H87.2335V4.7594H99.8325C103.908 4.7594 108.866 6.1519 108.866 10.9063C108.866 13.9964 105.198 15.6604 102.549 15.6604H108.866V28.5312H103.296V20.2112H92.4294V28.5312ZM92.4294 9.37807V15.6604H99.7987C101.836 15.6604 103.398 14.6416 103.398 12.4682C103.398 10.227 101.904 9.37807 99.8327 9.37807H92.4294Z" fill="#011015"/>
<path d="M110.563 23.6412C110.563 20.1091 114.4 18.6491 117.524 18.4795L124.588 18.1057V17.8C124.588 15.4908 122.449 14.9136 120.071 14.9136C117.422 14.9136 115.691 16.0682 115.691 17.6643H110.97C110.97 13.0458 114.366 11.0422 120.071 11.0422C126.388 11.0422 129.58 13.4872 129.58 18.8868V28.4973H124.656V22.4525C124.656 28.0558 119.358 28.9727 117.355 28.9727C114.027 28.9727 110.563 27.2069 110.563 23.6412ZM124.656 22.3168V21.4338L119.969 21.6714C118.849 21.7395 115.758 21.8414 115.758 23.4374C115.758 24.9315 117.966 25.4408 119.256 25.373C121.294 25.2373 124.656 24.6939 124.656 22.3168Z" fill="#011015"/>
<path d="M136.506 28.5313H131.243V11.5516H136.506V18.2755C136.506 13.1817 140.344 11.0077 143.468 11.0077C145.777 11.0077 150.532 11.7547 150.532 18.5807V28.5307H145.268V19.3961C145.268 17.1209 143.094 15.7285 141.159 15.7285C138.986 15.7285 136.507 17.3927 136.507 19.3961L136.506 28.5313Z" fill="#011015"/>
<path d="M166.797 28.4972V21.977C165.677 28.1915 161.975 28.9727 159.904 28.9727C154.266 28.9727 152.195 25.4068 152.195 20.0756C152.195 15.1171 154.232 11.3819 159.53 11.3819C161.499 11.3819 165.643 12.1292 166.798 18.3437V4.7594H171.892V28.4972H166.797ZM162.009 16.0001C159.36 16.0001 157.356 17.3583 157.356 20.0752C157.356 22.8945 159.156 24.2861 162.009 24.2861C164.794 24.2861 166.763 22.894 166.763 20.0752C166.763 17.3245 164.692 16.0001 162.009 16.0001Z" fill="#011015"/>
<path d="M183.64 11.1442C189.922 11.1442 193.522 13.7252 193.522 20.0075C193.522 25.8825 189.821 28.8029 183.64 28.8029C177.799 28.8029 173.588 25.8825 173.588 20.0075C173.588 13.9627 177.29 11.1442 183.64 11.1442ZM183.64 24.1846C186.594 24.1846 188.292 22.6563 188.292 19.9735C188.292 17.1549 186.561 15.7967 183.64 15.7967C180.652 15.7967 178.818 17.3246 178.818 19.9735C178.818 23.0978 180.516 24.1846 183.64 24.1846Z" fill="#011015"/>
<path d="M200.449 28.5313H195.219V11.5515H200.449V17.6303C200.449 13.0118 204.218 10.9744 206.256 10.9744C208.599 10.9744 212.674 12.1969 212.674 18.4452C212.674 12.1974 216.715 10.9744 218.82 10.9744C222.964 10.9744 225.137 13.2156 225.137 17.3921V28.5307H219.907V18.8528C219.907 17.0191 218.481 15.6945 216.545 15.6945C214.338 15.6945 212.674 17.4267 212.674 20.0753V28.5313H207.444V18.8528C207.444 17.0191 206.256 15.7623 204.286 15.7623C202.147 15.7623 200.448 17.3927 200.448 19.3961L200.449 28.5313Z" fill="#011015"/>
<path d="M8.26971 23.7313V0L0 8.26985V32H23.7324L32.0003 23.732V23.7313H8.26971Z" fill="#011015"/>
<path d="M11.4704 8.26743H23.7143V20.5363L28.8271 20.5249V3.16821H11.4704V8.26743Z" fill="#011015"/>
</svg>